<?xml version="1.0" encoding="utf-8"?>
<!-- Generator: Adobe Illustrator 24.1.3, SVG Export Plug-In . SVG Version: 6.00 Build 0)  -->
<svg version="1.1" id="Calque_1" xmlns="http://www.w3.org/2000/svg" xmlns:xlink="http://www.w3.org/1999/xlink" x="0px" y="0px"
	 viewBox="0 0 493.2 121.9" style="enable-background:new 0 0 493.2 121.9;" xml:space="preserve">
<style type="text/css">
	.st0{enable-background:new    ;}
	.st1{fill:#1D1D1B;}
	.st2{fill:#ED7912;}
</style>
<g id="Calque_2_1_">
	<g id="Calque_1-2">
		<g class="st0">
			<path class="st1" d="M86.6,43.2c0,16.1-11.3,27.7-27.7,27.7h-30v16.9H2.1V15.5h56.8C75.3,15.5,86.6,27.1,86.6,43.2z M59.7,43.2
				c0-5-3.3-5-6-5H28.9v9.9h24.8C56.4,48.1,59.7,48.1,59.7,43.2z"/>
		</g>
		<g class="st0">
			<path class="st1" d="M185.7,15.5v72.3h-26.9V63h-42.3v24.8H89.6V15.5h26.9v24.8h42.3V15.5H185.7z"/>
			<path class="st1" d="M186.8,51.5c0-25.1,13.6-37.1,45.4-37.1c31.7,0,45.4,12.1,45.4,37.1c0,25.1-13.7,37.3-45.4,37.3
				C200.5,88.8,186.8,76.7,186.8,51.5z M250.9,51.5c0-7.5-2.7-14.4-18.6-14.4s-18.6,6.7-18.6,14.4c0,7.7,2.8,14.6,18.6,14.6
				S250.9,59.2,250.9,51.5z"/>
			<path class="st1" d="M366.6,38.2h-31v49.6h-26.9V38.2h-31V15.5h88.8V38.2z"/>
		</g>
		<g class="st0">
			<path class="st1" d="M369.5,51.5c0-25.1,13.6-37.1,45.4-37.1c31.7,0,45.4,12.1,45.4,37.1c0,25.1-13.7,37.3-45.4,37.3
				C383.2,88.8,369.5,76.7,369.5,51.5z M433.6,51.5c0-7.5-2.7-14.4-18.6-14.4s-18.6,6.7-18.6,14.4c0,7.7,2.8,14.6,18.6,14.6
				S433.6,59.2,433.6,51.5z"/>
		</g>
		<path class="st2" d="M481.3,63.9c15.6,0.1,15.6,23.8,0,23.9C465.6,87.7,465.6,64,481.3,63.9z"/>
	</g>
</g>
</svg>
